<?xml version="1.0" encoding="utf-8"?>
<!-- Generator: Adobe Illustrator 19.1.0, SVG Export Plug-In . SVG Version: 6.00 Build 0)  -->
<svg version="1.1" id="Art" xmlns="http://www.w3.org/2000/svg" xmlns:xlink="http://www.w3.org/1999/xlink" x="0px" y="0px"
	 viewBox="-368.1 171.7 248.1 181" style="enable-background:new -368.1 171.7 248.1 181;" xml:space="preserve">
<style type="text/css">
	.st0{fill:#FFFFFF;}
</style>
<path class="st0" d="M-120.3,223.2h-10.8V182c-0.3-7.1-3.6-10.3-9.3-10.3h-13.3v51.5h-9c9.1,6.4,9.1,19.1,9,28.7v51.9
	c0,5.8-1.1,13.1-9.1,18.5h22.5c5.6,0,9-3.2,9.3-10.3v-77.1h1.2C-120,234.9-120.3,223.2-120.3,223.2z M-312.1,298.6l-0.1-52.8
	c0-17.3-5.8-22.6-23.4-22.6h-9.8v-41c-0.3-7.1-3.6-10.3-9.3-10.3h-13.4V312c0.3,7.1,3.6,10.3,9.3,10.3h13.2v-87.4h5.2
	c4.3,0,5.7,2,5.7,8.4V312c0.3,7.1,3.6,10.3,9.3,10.3h23.1C-310.2,315.4-312,307.4-312.1,298.6z"/>
<path class="st0" d="M-249.8,296.6v-47c0-9.9,0.5-15.1-5.1-20.1c-8.4-7.4-36.3-7.4-44.7-0.1c-6.2,5.3-6.9,10.3-6.9,19.2v49.2
	c0,8.9,0.7,13.8,6.9,19.2c8.4,7.3,36.3,7.3,44.7-0.1C-249.2,311.6-249.8,306.4-249.8,296.6L-249.8,296.6z M-271.7,305.4
	c0,7.1-12.2,7.1-12.2,0v-64.6c0-7.1,12.2-7.1,12.2,0V305.4L-271.7,305.4z M-159.5,289.5c0-15.9-2.9-17.5-20.3-25.1l-2.7-1.2
	c-7-3.1-10.8-4-11.1-11.4v-11.6c0-7.3,12.2-7.1,12.2,0v6c-0.2,8.1,8,10.6,8,10.6l13.9,6v-8.3c0-10.3,1-23.3-8.4-27.7
	c-11.1-5.2-31.2-4.9-40.7,1.5c-8.4,5.8-7.5,16.7-7.5,23.1c0,12.8,7.1,14.3,20,21.1l2.3,1.2c5.3,2.7,7.4,3.7,8.2,4.1
	c4.4,2.7,4.1,3,4.1,7v20.3c0,7.1-12.2,7.1-12.2,0v-9.8c0-12-10.5-15.9-10.5-15.9l-12-5.2v22.3c0,7,0.3,16.2,8.2,21.1
	c9.2,5.8,31.9,5.8,41,0.4c6.2-3.7,7.4-8.5,7.4-14.3v-14.2H-159.5z"/>
<path class="st0" d="M-221.6,305.8v-62.6V243v-1.7c0-12.3,8.5-16.7,8.5-16.7h-39.5c0,0,8.7,6.3,8.7,16.5v62.6c0,0.1,0,0.1,0.1,0.2
	v1.7c0,12.3-8.5,16.7-8.5,16.7h39.5C-212.8,322.3-221.6,316-221.6,305.8z M-218.6,190.5l-0.4-0.8c-2.7-5.7-13.9-17.9-13.9-17.9
	s-9.7,10.7-13.5,18.3l-0.2,0.4c-0.9,2-1.4,4.2-1.4,6.5c0,8.4,6.8,15.3,15.3,15.3c8.4,0,15.3-6.8,15.3-15.3
	C-217.5,194.7-217.7,192.5-218.6,190.5L-218.6,190.5z"/>
<g>
	<path class="st0" d="M-360.2,344.4h-5.7v8.3h-1.5v-19.5h7.1c3.4,0,5.9,2.1,5.9,5.6C-354.3,342.4-356.8,344.4-360.2,344.4
		L-360.2,344.4z M-360.4,334.5h-5.5v8.6h5.5c2.7,0,4.6-1.4,4.6-4.3C-355.8,335.9-357.7,334.5-360.4,334.5z M-351.7,352.7v-19.5h11.8
		v1.3h-10.3v7.7h8.8v1.3h-8.8v7.9h10.3v1.3H-351.7z M-325.9,352.7l-4.7-9h-5.4v9h-1.5v-19.5h7.5c3.2,0,5.6,1.8,5.6,5.2
		c0,2.9-1.8,4.8-4.5,5.3l4.7,9H-325.9z M-330.2,334.5h-5.7v7.9h5.7c2.5,0,4.3-1.3,4.3-3.9C-325.9,335.9-327.7,334.5-330.2,334.5z
		 M-320.1,334.5v8h8.8v1.3h-8.8v8.8h-1.5v-19.5h11.8v1.3h-10.3V334.5z M-307.8,352.7v-19.5h11.8v1.3h-10.3v7.7h8.8v1.3h-8.8v7.9
		h10.3v1.3H-307.8z M-287.1,352.8c-1.8,0-3.6-0.7-4.9-2c-1.8-1.8-1.8-3.5-1.8-7.9s0-6.1,1.8-7.9c1.3-1.3,3-2,4.9-2
		c3.5,0,6,2.2,6.6,5.7h-1.5c-0.6-2.7-2.5-4.4-5.1-4.4c-1.4,0-2.7,0.5-3.7,1.5c-1.4,1.4-1.5,2.9-1.5,7.1c0,4.2,0.1,5.7,1.5,7.1
		c1,1,2.3,1.5,3.7,1.5c2.6,0,4.6-1.7,5.2-4.4h1.5C-281.1,350.7-283.7,352.8-287.1,352.8L-287.1,352.8z M-272.5,334.5v18.2h-1.5
		v-18.2h-5.8v-1.3h13.1v1.3C-266.7,334.5-272.5,334.5-272.5,334.5z M-264.5,352.7v-19.5h1.5v18.2h10.3v1.3H-264.5z M-248.5,344.6
		v8.1h-1.5v-8.1l-5.7-11.4h1.6l5,9.9l4.8-9.9h1.6L-248.5,344.6z M-232.9,352.7v-19.5h1.5v19.5H-232.9z M-221.6,352.8
		c-2.9,0-4.7-0.8-6.5-2.6l1-1c1.8,1.8,3.2,2.3,5.5,2.3c3.1,0,5-1.5,5-4c0-1.1-0.4-2.1-1.1-2.7c-0.7-0.6-1.2-0.8-2.8-1l-2.3-0.4
		c-1.5-0.2-2.7-0.7-3.5-1.4c-1-0.9-1.5-2.1-1.5-3.6c0-3.3,2.3-5.3,6-5.3c2.4,0,3.9,0.7,5.6,2.1l-1,1c-1.2-1.1-2.4-1.8-4.7-1.8
		c-2.8,0-4.5,1.6-4.5,4c0,1.1,0.3,2,1,2.5c0.7,0.6,1.8,1,2.9,1.2l2.1,0.3c1.8,0.3,2.7,0.6,3.5,1.3c1.1,0.9,1.7,2.2,1.7,3.8
		C-215,350.7-217.5,352.8-221.6,352.8L-221.6,352.8z M-201.3,350.8c-1.3,1.3-3,2-4.9,2c-1.8,0-3.6-0.7-4.9-2
		c-1.8-1.8-1.8-3.5-1.8-7.9s0-6.1,1.8-7.9c1.3-1.3,3-2,4.9-2c1.8,0,3.6,0.7,4.9,2c1.8,1.8,1.8,3.5,1.8,7.9
		C-199.4,347.3-199.5,349.1-201.3,350.8z M-202.4,335.8c-1-1-2.3-1.5-3.7-1.5s-2.7,0.5-3.7,1.5c-1.4,1.4-1.5,2.9-1.5,7.1
		s0.1,5.7,1.5,7.1c1,1,2.3,1.5,3.7,1.5s2.7-0.5,3.7-1.5c1.4-1.4,1.5-2.9,1.5-7.1C-200.9,338.7-201,337.2-202.4,335.8z M-191.3,334.5
		v18.2h-1.5v-18.2h-5.8v-1.3h13.1v1.3H-191.3z M-173,350.8c-1.3,1.3-3,2-4.9,2s-3.6-0.7-4.9-2c-1.8-1.8-1.8-3.5-1.8-7.9
		s0-6.1,1.8-7.9c1.3-1.3,3-2,4.9-2s3.6,0.7,4.9,2c1.8,1.8,1.8,3.5,1.8,7.9S-171.3,349.1-173,350.8z M-174.2,335.8
		c-1-1-2.3-1.5-3.7-1.5s-2.7,0.5-3.7,1.5c-1.4,1.4-1.5,2.9-1.5,7.1s0.1,5.7,1.5,7.1c1,1,2.3,1.5,3.7,1.5s2.7-0.5,3.7-1.5
		c1.4-1.4,1.5-2.9,1.5-7.1C-172.7,338.7-172.8,337.2-174.2,335.8z M-155,352.7l-11.3-16.9v16.9h-1.5v-19.5h1.5l11.3,16.9v-16.9h1.5
		v19.5H-155z M-150.1,352.7v-19.5h1.5v19.5H-150.1z M-138.4,352.8c-1.8,0-3.6-0.7-4.9-2c-1.8-1.8-1.8-3.5-1.8-7.9s0-6.1,1.8-7.9
		c1.3-1.3,3-2,4.9-2c3.5,0,6,2.2,6.6,5.7h-1.5c-0.6-2.7-2.5-4.4-5.1-4.4c-1.4,0-2.7,0.5-3.7,1.5c-1.4,1.4-1.5,2.9-1.5,7.1
		c0,4.2,0.1,5.7,1.5,7.1c1,1,2.3,1.5,3.7,1.5c2.6,0,4.6-1.7,5.2-4.4h1.5C-132.4,350.7-134.9,352.8-138.4,352.8L-138.4,352.8z
		 M-126.1,341.2c-2.3,0-4.2-1.9-4.2-4.2c0-2.3,1.9-4.2,4.2-4.2c2.3,0,4.2,1.9,4.2,4.2C-122,339.3-123.8,341.2-126.1,341.2
		L-126.1,341.2z M-126.1,333.3c-2,0-3.6,1.7-3.6,3.7s1.6,3.7,3.6,3.7c2,0,3.6-1.7,3.6-3.7S-124.1,333.3-126.1,333.3z M-125,339.3
		l-1.1-1.9h-0.8v1.9h-0.5v-4.6h1.5c0.8,0,1.4,0.6,1.4,1.4c0,0.7-0.4,1.1-1.1,1.3l1.2,2h-0.6L-125,339.3z M-126,335.2h-0.9v1.8h0.9
		c0.6,0,1-0.4,1-0.9C-125.1,335.5-125.5,335.2-126,335.2L-126,335.2z"/>
</g>
<g>
	<path class="st0" d="M-124.2,246.4c-2.3,0-4.2-1.9-4.2-4.2s1.9-4.2,4.2-4.2s4.2,1.9,4.2,4.2C-120,244.5-121.9,246.4-124.2,246.4z
		 M-124.2,238.6c-1.9,0-3.5,1.6-3.5,3.6s1.6,3.6,3.5,3.6s3.5-1.6,3.5-3.6S-122.3,238.6-124.2,238.6L-124.2,238.6z M-123.2,244.5
		l-1.1-1.9h-0.7v1.9h-0.6v-4.6h1.6c0.8,0,1.4,0.6,1.4,1.4c0,0.7-0.4,1.1-1,1.3l1.1,2h-0.7V244.5z M-124.1,240.4h-0.9v1.6h0.9
		c0.5,0,0.9-0.3,0.9-0.8S-123.6,240.4-124.1,240.4z"/>
</g>
</svg>
