
<svg width="341px" height="39px" viewBox="488 329 341 39" version="1.1" xmlns="http://www.w3.org/2000/svg" xmlns:xlink="http://www.w3.org/1999/xlink">
    <defs>
        <polygon id="path-1" points="0.552036364 29.75 19.7420364 29.75 19.7420364 0.641708333 0.552036364 0.641708333 0.552036364 29.75"></polygon>
    </defs>
    <g id="Page-1" stroke="none" stroke-width="1" fill="none" fill-rule="evenodd" transform="translate(488.000000, 329.000000)">
        <polygon id="Fill-1" fill="#FEFEFE" points="0 14.5107 0 16.9126167 15.1412727 25.9018667 15.1412727 22.9567 2.99854545 15.81245 15.1412727 8.4837 15.1412727 5.60003333"></polygon>
        <polygon id="Fill-2" fill="#FEFEFE" points="36.9826364 1.41735 24.6326364 30.7426 27.607 30.7426 40.0157273 1.41735"></polygon>
        <g id="Group-26" transform="translate(49.363636, 0.869317)">
            <path d="M14.1944727,11.4577917 C12.4257455,10.8837917 10.7606545,10.5967917 9.19574545,10.5967917 C7.48229091,10.5967917 6.12465455,10.880375 5.12629091,11.4475417 C4.12792727,12.0147083 3.62701818,12.7732083 3.62701818,13.719625 C3.62701818,14.3209583 3.85847273,14.8437083 4.31792727,15.2912917 C4.77392727,15.738875 5.69283636,16.1557083 7.06774545,16.5417917 L10.0870182,17.4027917 C11.4757455,17.7922917 12.6088364,18.2535417 13.4862909,18.793375 C14.3637455,19.336625 15.0201091,19.9892083 15.4588364,20.7579583 C15.8975636,21.5232917 16.1186545,22.4150417 16.1186545,23.4297917 C16.1186545,25.4182917 15.2722909,26.9899583 13.5864727,28.1447917 C11.9006545,29.299625 9.75538182,29.8770417 7.15065455,29.8770417 C4.55974545,29.8770417 2.42138182,29.4875417 0.735563636,28.715375 L1.34010909,26.0127917 C3.10883636,26.839625 5.00538182,27.2530417 7.02974545,27.2530417 C8.78465455,27.2530417 10.2113818,26.9284583 11.3099273,26.2827083 C12.4084727,25.6335417 12.9612,24.7759583 12.9612,23.7099583 C12.9612,22.9890417 12.6848364,22.3467083 12.1390182,21.7795417 C11.5932,21.2089583 10.3081091,20.6212917 8.28374545,20.0062917 C6.64974545,19.510875 5.45101818,19.141875 4.68065455,18.895875 C3.91029091,18.6464583 3.1952,18.2842917 2.53538182,17.8025417 C1.87556364,17.3242083 1.3712,16.7502083 1.02574545,16.0839583 C0.683745455,15.4142917 0.511018182,14.6660417 0.511018182,13.8392083 C0.511018182,12.038625 1.30901818,10.6104583 2.89810909,9.55470833 C4.49065455,8.502375 6.60483636,7.97279167 9.23374545,7.97279167 C10.9368364,7.97279167 12.8264727,8.25979167 14.9026545,8.83379167 L14.1944727,11.4577917 Z" id="Fill-3" fill="#FEFEFE"></path>
            <path d="M41.4802,28.3942083 C39.3625636,29.3542917 37.2760182,29.8360417 35.2240182,29.8360417 C31.4620182,29.8360417 29.5792909,27.8680417 29.5792909,23.928625 L29.5792909,11.177625 L25.5305636,11.177625 L25.5305636,8.47504167 L29.5792909,8.47504167 L29.5792909,2.76920833 L32.6538364,2.76920833 L32.6538364,8.47504167 L39.8220182,8.47504167 L39.8220182,11.177625 L32.6538364,11.177625 L32.6538364,23.108625 C32.6538364,24.3762083 32.9371091,25.3602083 33.5036545,26.060625 C34.0702,26.7610417 34.8405636,27.1129583 35.8112909,27.1129583 C37.5385636,27.1129583 39.2485636,26.7337083 40.9343818,25.9717917 L41.4802,28.3942083 Z" id="Fill-5" fill="#FEFEFE"></path>
            <g id="Group-9" transform="translate(47.363636, 7.833333)">
                <mask id="mask-2" fill="white">
                    <use xlink:href="#path-1"></use>
                </mask>
                <g id="Clip-8"></g>
                <path d="M19.7420364,0.641708333 L11.7482182,21.5004583 C10.5874909,24.5720417 9.43712727,26.7142917 8.29712727,27.9272083 C7.15367273,29.1435417 5.85476364,29.7517083 4.4004,29.7517083 C3.10494545,29.7517083 1.82330909,29.5159583 0.552036364,29.047875 L1.08058182,26.546875 C2.10658182,26.8680417 3.02203636,27.028625 3.83385455,27.028625 C4.96694545,27.028625 5.89621818,26.5947083 6.62512727,25.726875 C7.35403636,24.8590417 8.08985455,23.4377083 8.83258182,21.462875 L0.918218182,0.641708333 L4.35894545,0.641708333 L10.3284,17.2774583 L16.3013091,0.641708333 L19.7420364,0.641708333 Z" id="Fill-7" fill="#FEFEFE" mask="url(#mask-2)"></path>
            </g>
            <polygon id="Fill-10" fill="#FEFEFE" points="89.4928545 29.3351583 80.8703091 29.3351583 80.8703091 3.78874167 75.3637636 3.78874167 75.3637636 1.08615833 84.0277636 1.08615833 84.0277636 26.632575 89.4928545 26.632575"></polygon>
            <path d="M113.094309,16.4628667 C113.094309,14.8331167 112.583036,13.4630333 111.557036,12.3492 C110.531036,11.2353667 109.384127,10.67845 108.116309,10.67845 C106.482309,10.67845 105.128127,11.21145 104.057218,12.27745 C102.982855,13.3468667 102.385218,14.7408667 102.264309,16.4628667 L113.094309,16.4628667 Z M116.535036,19.0048667 L102.063945,19.0048667 C102.063945,21.3692 102.754855,23.3167 104.136673,24.8507833 C105.521945,26.3848667 107.218127,27.1536167 109.228673,27.1536167 C111.145945,27.1536167 113.121945,26.81195 115.160127,26.1320333 L115.705945,28.63645 C113.843945,29.4632833 111.671036,29.8767 109.187218,29.8767 C106.0574,29.8767 103.532127,28.88245 101.618309,26.89395 C99.7010364,24.90545 98.7441273,22.2233667 98.7441273,18.8442833 C98.7441273,15.53695 99.6043091,12.8958667 101.324673,10.9278667 C103.045036,8.95986667 105.266309,7.97586667 107.991945,7.97586667 C110.423945,7.97586667 112.451764,8.88811667 114.085764,10.7160333 C115.719764,12.5473667 116.535036,14.9800333 116.535036,18.0242833 L116.535036,19.0048667 Z" id="Fill-12" fill="#FEFEFE"></path>
            <polygon id="Fill-14" fill="#FEFEFE" points="140.703727 16.042275 125.562455 25.031525 125.562455 22.089775 137.708636 14.9421083 125.562455 7.61335833 125.562455 4.72969167 140.703727 13.6403583"></polygon>
            <path d="M181.368909,19.0851583 C182.529636,19.0851583 183.476182,18.688825 184.212,17.8927417 C184.947818,17.100075 185.317455,16.0614083 185.317455,14.7801583 C185.317455,13.4339917 184.958182,12.3782417 184.243091,11.616325 C183.528,10.857825 182.571091,10.4751583 181.368909,10.4751583 C180.249636,10.4751583 179.306545,10.8749083 178.546545,11.667575 C177.783091,12.4636583 177.403091,13.4989083 177.403091,14.7801583 C177.403091,16.034075 177.783091,17.0659083 178.546545,17.8756583 C179.306545,18.6819917 180.249636,19.0851583 181.368909,19.0851583 M181.489818,35.160575 C183.569455,35.160575 185.338182,34.7027417 186.802909,33.7904917 C188.267636,32.874825 189,31.7439083 189,30.3977417 C189,29.0071583 187.960182,28.313575 185.884,28.313575 C185.193091,28.313575 184.008182,28.354575 182.318909,28.4331583 C181.254909,28.487825 180.418909,28.5151583 179.810909,28.5151583 C179.513818,28.5151583 179.050909,28.754325 178.422182,29.236075 C177.796909,29.7144083 177.316727,30.199575 176.985091,30.6881583 C176.656909,31.173325 176.491091,31.6789917 176.491091,32.198325 C176.491091,33.0114917 176.950545,33.7084917 177.866,34.289325 C178.784909,34.8701583 179.994,35.160575 181.489818,35.160575 M180.135636,21.466575 C178.163091,22.4164083 177.178545,23.250075 177.178545,23.9709917 C177.178545,24.357075 177.406545,24.685075 177.855636,24.951575 C178.308182,25.218075 178.926545,25.351325 179.710727,25.351325 L186.813273,25.1497417 C188.499091,25.1497417 189.811818,25.5597417 190.751455,26.3729083 C191.687636,27.186075 192.157455,28.3409083 192.157455,29.8339917 C192.157455,32.198325 191.09,34.0809083 188.958545,35.4817417 C186.827091,36.882575 184.336364,37.5829917 181.489818,37.5829917 C179.154545,37.5829917 177.247636,37.097825 175.762182,36.1309083 C174.276727,35.1639917 173.534,33.9134917 173.534,32.3794083 C173.534,30.7086583 174.680909,29.3009917 176.978182,28.1529917 C175.074727,27.2714917 174.121273,26.191825 174.121273,24.910575 C174.121273,23.4414083 175.351091,22.0747417 177.807273,20.8071583 C176.674182,20.1272417 175.803636,19.2457417 175.195636,18.1626583 C174.587636,17.0829917 174.283636,15.941825 174.283636,14.742575 C174.283636,12.7779917 174.960727,11.1687417 176.308,9.904575 C177.658727,8.643825 179.344545,8.01515833 181.368909,8.01515833 C182.826727,8.01515833 184.142909,8.315825 185.317455,8.91374167 L191.570182,7.97415833 L191.570182,11.0184083 L187.542182,11.0184083 C188.150182,12.0707417 188.454182,13.3144083 188.454182,14.742575 C188.454182,16.6354083 187.784,18.237825 186.450545,19.5464083 C185.113636,20.8549917 183.420909,21.507575 181.368909,21.507575 C180.937091,21.507575 180.526,21.4939083 180.135636,21.466575" id="Fill-16" fill="#FEFEFE"></path>
            <path d="M215.374764,29.3351583 L212.217309,29.3351583 L212.217309,26.253325 C209.951127,28.641575 207.560582,29.8339917 205.052582,29.8339917 C201.097127,29.8339917 199.121127,27.4662417 199.121127,22.727325 L199.121127,8.47640833 L202.278582,8.47640833 L202.278582,21.8287417 C202.278582,23.6019917 202.561855,24.9276583 203.1284,25.802325 C203.694945,26.6769917 204.651855,27.114325 206.002582,27.114325 C207.933673,27.114325 210.002945,25.925325 212.217309,23.5507417 L212.217309,8.47640833 L215.374764,8.47640833 L215.374764,29.3351583 Z" id="Fill-18" fill="#FEFEFE"></path>
            <path d="M233.490745,0.587325 C234.084927,0.587325 234.589291,0.799158333 235.007291,1.21940833 C235.428745,1.63965833 235.636018,2.14190833 235.636018,2.729575 C235.636018,3.344575 235.4322,3.857075 235.017655,4.27049167 C234.606564,4.68390833 234.098745,4.892325 233.490745,4.892325 C232.938018,4.892325 232.447473,4.67365833 232.022564,4.23974167 C231.597655,3.805825 231.386927,3.303575 231.386927,2.729575 C231.386927,2.155575 231.597655,1.653325 232.022564,1.22624167 C232.447473,0.799158333 232.938018,0.587325 233.490745,0.587325 L233.490745,0.587325 Z M235.028018,29.3351583 L231.870564,29.3351583 L231.870564,11.1789917 L225.655836,11.1789917 L225.655836,8.47640833 L235.028018,8.47640833 L235.028018,29.3351583 Z" id="Fill-20" fill="#FEFEFE"></path>
            <path d="M261.929945,22.9490667 L261.929945,14.2809833 C260.420309,11.8790667 258.596309,10.6764 256.464855,10.6764 C254.723764,10.6764 253.348855,11.4417333 252.336673,12.9689833 C251.324491,14.4962333 250.816673,16.4300667 250.816673,18.76365 C250.816673,21.1689833 251.2934,23.1540667 252.2434,24.7223167 C253.196855,26.2905667 254.502673,27.0729833 256.160855,27.0729833 C256.958855,27.0729833 257.760309,26.86115 258.568673,26.4340667 C259.380491,26.0069833 260.140491,25.36465 260.855582,24.5104833 C261.570673,23.6563167 261.929945,23.1369833 261.929945,22.9490667 L261.929945,22.9490667 Z M265.0874,29.3348167 L261.929945,29.3348167 L261.929945,26.3315667 C261.283945,27.3599833 260.354673,28.2073167 259.145582,28.8735667 C257.939945,29.5432333 256.668673,29.87465 255.331764,29.87465 C252.917036,29.87465 251.006673,28.8120667 249.604127,26.6834833 C248.198127,24.5549 247.496855,21.8557333 247.496855,18.5859833 C247.496855,15.5280667 248.229218,12.9963167 249.693945,10.9873167 C251.158673,8.97831667 253.096673,7.97381667 255.514855,7.97381667 C258.1714,7.97381667 260.309764,9.04323333 261.929945,11.17865 L261.929945,1.08923333 L265.0874,1.08923333 L265.0874,29.3348167 Z" id="Fill-22" fill="#FEFEFE"></path>
            <path d="M287.231727,16.4628667 C287.231727,14.8331167 286.720455,13.4630333 285.694455,12.3492 C284.668455,11.2353667 283.521545,10.67845 282.253727,10.67845 C280.619727,10.67845 279.265545,11.21145 278.194636,12.27745 C277.120273,13.3468667 276.522636,14.7408667 276.401727,16.4628667 L287.231727,16.4628667 Z M290.672455,19.0048667 L276.201364,19.0048667 C276.201364,21.3692 276.892273,23.3167 278.274091,24.8507833 C279.659364,26.3848667 281.355545,27.1536167 283.366091,27.1536167 C285.283364,27.1536167 287.259364,26.81195 289.297545,26.1320333 L289.843364,28.63645 C287.981364,29.4632833 285.808455,29.8767 283.324636,29.8767 C280.194818,29.8767 277.669545,28.88245 275.755727,26.89395 C273.838455,24.90545 272.881545,22.2233667 272.881545,18.8442833 C272.881545,15.53695 273.741727,12.8958667 275.462091,10.9278667 C277.182455,8.95986667 279.403727,7.97586667 282.129364,7.97586667 C284.561364,7.97586667 286.589182,8.88811667 288.223182,10.7160333 C289.857182,12.5473667 290.672455,14.9800333 290.672455,18.0242833 L290.672455,19.0048667 Z" id="Fill-24" fill="#FEFEFE"></path>
        </g>
    </g>
</svg>