<svg width="273px" height="101px" viewBox="23 429 273 101" version="1.1" xmlns="http://www.w3.org/2000/svg" xmlns:xlink="http://www.w3.org/1999/xlink">
    <path d="M246.074536,429 C239.331872,429.311636 232.73086,429.736594 226.186509,430.388196 C222.98516,430.699831 219.755481,431.238111 216.554132,431.351433 C209.896459,431.606408 203.437099,432.343002 197.147723,433.164587 C193.974705,433.561214 190.745025,433.787858 187.572007,434.212816 C181.282631,435.006071 175.049916,435.799325 168.930523,436.790894 C168.448904,437.045868 169.270489,437.414165 168.987184,437.414165 C167.513997,437.924115 165.445868,437.867454 164.142664,438.519056 C164.397639,439.113997 165.247555,439.170658 165.870826,439.28398 C167.938954,439.652277 170.488702,439.595616 172.528499,439.963912 C172.840135,440.218887 172.443508,440.36054 172.670152,440.728836 C172.896796,441.068803 173.491737,441.040472 173.775042,441.408769 C173.775042,441.805396 173.180101,441.578752 173.151771,441.975379 C175.588196,443.335245 178.959528,442.740304 182.104216,442.740304 C192.048229,442.740304 201.708938,441.748735 211.086341,441.153794 C209.329848,453.562563 207.318381,467.671164 205.675211,480.674874 C205.476897,482.261383 204.938617,483.932884 206.15683,484.612816 C207.035076,485.122766 208.536594,484.83946 210.094772,484.754469 C211.992917,484.641147 214.089376,484.754469 214.740978,483.649578 C215.024283,483.139629 215.080944,481.949747 215.222597,481.01484 C217.177403,467.529511 219.245531,453.647555 221.172007,440.190556 C226.894772,439.595616 234.798988,439.000675 241.060034,438.604047 C243.666442,438.434064 247.91602,438.575717 248.765936,436.734233 C249.219224,435.686003 249.729174,430.784823 248.96425,429.878246 C248.482631,429.311636 247.689376,429.198314 246.669477,429.056661 L246.074536,429 Z M107.56661,529.8 C106.43339,528.978415 105.526813,527.675211 104.648567,526.598651 C104.365261,526.258685 104.025295,525.635413 103.74199,525.692074 C103.855312,525.890388 103.883642,526.145363 103.883642,526.456998 C103.600337,526.372007 103.373693,526.258685 103.20371,526.117032 C102.892074,526.343676 103.033727,526.57032 102.580438,526.598651 C101.872175,526.655312 100.710624,525.210455 100.087352,524.530523 C99.2940978,523.652277 98.7841484,522.689039 98.2175379,521.839123 C94.4779089,516.22968 91.389882,510.110287 88.1035413,504.30253 C85.808769,500.279595 83.6273187,496.539966 81.6441821,492.375379 C80.1709949,489.259022 78.7544688,486.114334 77.2812816,482.941315 C76.8846543,482.063069 76.2613828,480.023272 75.7514334,479.824958 C75.241484,479.626644 74.4482293,479.96661 74.2215852,480.023272 C73.7116358,483.706239 72.8900506,488.267454 72.3517707,492.290388 C72.1817875,493.621922 72.0401349,495.435076 71.5301855,496.228331 C70.9352445,497.134907 68.8671164,497.106577 67.3089376,497.191568 C66.0623946,497.27656 64.022597,497.616526 63.1443508,496.993255 C62.0111298,496.171669 62.9177066,492.97032 63.2010118,491.440472 C63.5409781,489.68398 63.6259696,487.870826 63.8242833,486.4543 C64.2775717,483.139629 64.9575042,480.419899 65.4107926,476.878583 C66.0340641,472.119056 66.7989882,467.359528 67.6205734,462.543339 C67.9322091,460.815177 68.0455312,459.058685 68.8104553,458.095447 C69.8020236,456.792243 72.1817875,456.990556 74.3632378,456.848904 C78.6411467,456.537268 83.8539629,455.517369 87.7352445,456.225632 C93.4013491,457.245531 96.0077572,461.721754 94.8178752,468.294435 C93.882968,473.507251 90.256661,476.68027 85.2421585,478.550084 C88.9251265,486.765936 93.2030354,494.55683 97.3676223,502.404384 C99.4640809,506.342327 101.475548,510.336931 103.458685,514.331535 C104.450253,516.314671 105.583474,518.241147 106.518381,520.280944 C106.971669,521.272513 107.424958,522.349073 107.963238,523.340641 C108.501518,524.303879 109.15312,525.267116 109.266442,526.400337 C108.246543,526.03204 108.048229,524.785497 107.056661,524.38887 C106.631703,526.343676 108.586509,527.788533 108.10489,529.8 L107.56661,529.8 Z M79.2927487,470.872513 C80.4259696,470.759191 81.7858347,470.759191 82.6924115,470.390894 C84.4489039,469.682631 85.8370995,466.36796 83.372344,465.263069 C80.879258,465.234739 78.6411467,465.433052 76.3747049,465.603035 C76.0347386,467.302867 75.893086,469.229342 75.6097808,471.014165 C76.7713322,471.014165 78.0462057,470.985835 79.2927487,470.872513 Z M23,448.831366 C23.2833052,449.59629 24.3598651,449.284654 24.8698145,449.737943 C25.2097808,450.021248 24.5865093,449.936256 24.9264755,450.361214 C25.3514334,450.899494 27.33457,450.757841 28.1278246,450.842833 C29.3460371,450.956155 30.422597,451.041147 31.1875211,451.466105 C31.2441821,451.891062 30.3092749,451.862732 30.0826307,452.231029 C30.0543002,452.740978 30.8758853,452.712648 30.7625632,453.052614 C30.3092749,453.335919 29.4876897,453.250927 29.0910624,453.619224 C30.1109612,454.865767 32.5757167,454.724115 34.6438449,454.809106 C40.989882,455.064081 47.8175379,454.639123 53.7669477,454.327487 C53.1720067,459.795278 52.3220911,465.31973 51.5571669,470.815852 C51.3021922,472.629005 51.1888702,474.470489 50.8772344,476.283642 C50.5939292,477.955143 50.1973019,479.739966 49.9706577,481.609781 C49.4890388,485.434401 48.9224283,488.550759 48.3841484,492.43204 C48.2708263,493.225295 48.1575042,494.188533 47.9591906,495.12344 C47.6192243,496.879933 47.1092749,498.38145 48.7241147,498.948061 C49.772344,498.976391 51.018887,498.806408 52.3220911,498.664755 C54.2202361,498.466442 56.3733558,498.636425 57.1099494,497.361551 C57.4215852,496.794941 57.4782462,495.66172 57.6765599,494.726813 C58.1865093,492.035413 58.441484,489.089039 58.8664418,486.397639 C60.5096121,475.518718 62.3510961,464.044857 63.9376054,453.477572 C70.1703204,452.995953 76.7146712,452.882631 83.0040472,452.174368 C84.8738617,451.947723 88.2735245,451.74941 89.0384486,450.446206 C89.9166948,448.973019 90.8799325,443.136931 88.896796,442.258685 C88.0185497,441.862057 86.1487352,442.145363 84.7322091,442.258685 C83.1456998,442.400337 81.7291737,442.485329 80.4259696,442.54199 C77.3662732,442.683642 74.6748735,442.995278 72.0401349,443.221922 C66.2890388,443.760202 60.7079258,444.15683 55.2684654,444.610118 C46.9392917,445.290051 38.3268128,445.743339 30.3092749,446.90489 C28.3261383,447.188196 26.4563238,447.584823 24.5581788,448.009781 C24.0482293,448.123103 23.2833052,448.094772 23.0283305,448.689713 L23,448.831366 Z M285.170658,436.620911 C284.547386,438.915683 286.530523,440.92715 288.711973,440.643845 C290.610118,440.38887 292.649916,437.754132 291.686678,435.572681 C291.318381,434.722766 290.015177,433.90118 288.626981,433.986172 C286.955481,434.071164 285.510624,435.261046 285.170658,436.620911 Z M266.245868,441.352108 C265.310961,437.329174 268.710624,437.782462 271.713659,437.527487 C273.526813,437.385835 275.594941,438.150759 277.124789,438.717369 C279.90118,439.737268 282.224283,441.46543 283.782462,443.845194 C284.490725,444.921754 285.31231,445.998314 285.793929,447.046543 C287.663744,451.126138 288.088702,456.848904 287.182125,461.948398 C286.36054,466.651265 284.292411,470.929174 282.252614,474.300506 C279.164587,479.343339 273.92344,483.73457 265.395953,483.309612 C262.052951,483.139629 258.936594,481.496459 257.151771,479.484992 C255.253626,477.360202 253.752108,474.385497 253.270489,471.014165 C252.76054,467.586172 252.958853,463.478246 253.695447,459.710287 C254.347049,456.395616 255.48027,453.420911 257.010118,450.70118 C259.389882,446.508263 261.911298,443.476897 266.245868,441.352108 Z M269.758853,449.992917 C266.642496,450.757841 264.517707,453.279258 263.299494,456.565599 C262.137943,459.710287 261.118044,463.619899 261.344688,467.161214 C261.571332,470.589207 263.441147,473.677234 266.557504,474.158853 C268.427319,474.442159 270.353794,473.705565 271.543676,472.968971 C273.441821,471.80742 275.169983,469.257673 276.133221,466.877909 C277.833052,462.656661 278.569646,455.829005 276.189882,452.542664 C275.113322,451.069477 272.931872,449.624621 270.438786,449.907926 C270.240472,449.964587 270.042159,449.936256 269.758853,449.992917 Z M291.403373,442.372007 C292.083305,444.298482 296.049578,443.448567 295.341315,440.785497 C294.406408,438.405734 290.553457,439.935582 291.403373,442.372007 Z M124.621585,441.352108 C121.278583,441.46543 117.453963,441.663744 116.292411,444.18516 C115.952445,444.950084 115.754132,446.083305 115.527487,447.159865 C114.195953,453.477572 113.742664,460.220236 112.467791,466.566273 C112.241147,467.699494 112.212816,468.861046 112.042833,469.965936 C111.816189,471.410793 111.447892,472.968971 111.277909,474.668803 C110.966273,477.898482 110.399663,481.04317 109.974705,484.30118 C109.748061,485.972681 109.294772,487.700843 109.493086,489.372344 C109.946374,493.423609 115.13086,492.885329 119.125464,492.573693 C121.561889,492.375379 123.658347,492.177066 126.066442,492.007083 C125.698145,496.653288 123.375042,504.33086 128.899494,504.755818 C131.732546,504.982462 134.62226,504.727487 137.568634,504.472513 C143.206408,504.019224 149.212479,503.537605 154.68027,503.084317 C158.788196,502.744351 163.321079,502.517707 166.749073,501.696121 C166.862395,501.242833 165.984148,501.441147 166.125801,501.214503 C166.60742,501.214503 167.117369,501.07285 167.655649,501.016189 C168.108938,500.959528 168.817201,501.044519 168.958853,500.591231 C168.732209,500.052951 167.513997,500.506239 167.287352,499.96796 C169.128836,499.599663 171.735245,499.316358 173.746712,499.061383 C174.398314,498.976391 175.361551,499.089713 175.418212,498.239798 C174.596627,497.474874 172.613491,497.899831 171.593592,497.333221 C172.131872,497.049916 173.180101,497.30489 173.321754,496.653288 C173.066779,496.001686 171.820236,496.341653 171.593592,495.690051 C172.301855,495.151771 173.746712,495.350084 174.511636,494.868465 C171.706914,493.961889 168.477234,494.245194 165.360877,494.386847 C157.371669,494.755143 149.779089,495.350084 142.129848,495.973356 C140.005059,496.143339 137.143676,496.596627 135.953794,495.548398 C135.812142,493.990219 136.180438,492.488702 136.520405,491.100506 C141.761551,490.873862 147.6543,489.768971 153.63204,489.71231 C156.663406,489.68398 159.099831,489.117369 162.017875,488.890725 C163.292749,488.777403 164.765936,488.664081 166.324115,488.550759 C167.598988,488.437437 169.638786,488.324115 170.205396,487.785835 C170.94199,487.105902 171.083642,484.726138 171.253626,483.621248 C171.366948,482.827993 172.131872,479.739966 171.536931,479.116695 C171.083642,478.663406 168.817201,479.116695 167.853963,479.173356 C163.802698,479.484992 160.034739,479.853288 156.351771,479.994941 C156.465093,477.983474 156.975042,475.773693 157.173356,473.620573 C158.051602,473.648904 158.901518,473.393929 159.808094,473.337268 C164.086003,473.053963 168.902192,473.365599 172.273524,472.37403 C172.896796,469.994266 173.435076,466.849578 173.378415,464.271501 C172.301855,463.789882 170.998651,464.101518 169.780438,464.21484 C165.927487,464.554806 161.904553,464.866442 158.136594,464.894772 C158.589882,463.081619 158.731535,460.95683 159.241484,459.200337 C162.981113,458.973693 166.975717,458.492074 170.828668,458.152108 C171.763575,458.067116 173.860034,458.208769 174.426644,457.812142 C175.163238,457.302192 175.219899,455.347386 175.389882,454.270826 C175.729848,452.202698 176.806408,449.539629 175.248229,448.51973 C169.950422,448.264755 163.91602,449.397976 158.759865,449.766273 C156.890051,449.879595 154.963575,449.907926 153.433727,450.389545 C152.838786,450.587858 151.875548,451.579427 151.620573,451.976054 C150.742327,453.39258 150.317369,455.829005 149.949073,457.925464 C149.212479,462.345025 148.447555,466.679595 147.937605,471.155818 C147.540978,474.640472 147.11602,478.068465 146.407757,480.986509 C143.461383,481.184823 140.288364,481.58145 137.596965,481.609781 C139.013491,474.272175 140.090051,466.424621 141.13828,458.860371 C141.478246,456.310624 142.328162,453.845868 142.101518,451.296121 C141.081619,450.927825 139.750084,451.041147 138.560202,451.097808 C137.37032,451.154469 135.982125,451.23946 135.018887,451.522766 C132.525801,452.259359 131.845868,454.100843 131.335919,456.848904 C131.109275,458.067116 131.024283,459.398651 130.8543,460.588533 C129.806071,467.982799 128.502867,475.830354 127.454637,482.714671 C125.471501,482.827993 122.666779,483.337943 120.796965,482.714671 C120.088702,481.071501 120.626981,479.230017 120.853626,477.586847 C122.298482,467.217875 123.998314,457.047218 125.41484,446.819899 C125.669815,445.063406 126.123103,443.335245 125.98145,441.550422 C125.839798,441.210455 125.159865,441.323777 124.621585,441.352108 Z M242.674874,464.979764 C248.96425,477.24688 254.460371,490.052277 260.35312,502.68769 C261.203035,504.500843 262.194604,506.370658 262.364587,508.438786 C262.081282,508.863744 261.741315,508.212142 261.316358,508.297133 C261.514671,509.118718 261.939629,509.74199 261.99629,510.733558 C261.627993,511.045194 261.344688,510.365261 261.174705,510.450253 C261.231366,511.838449 262.166273,512.745025 261.854637,514.274874 C261.061383,513.934907 260.778078,513.056661 260.324789,512.405059 C259.84317,511.725126 259.418212,511.016863 259.021585,510.336931 C258.908263,511.441821 259.956492,512.943339 259.361551,514.07656 C258.454975,513.878246 257.916695,513.056661 257.350084,512.405059 C256.783474,511.753457 256.075211,511.186847 255.536931,510.535245 C254.375379,509.033727 253.525464,507.078921 252.420573,505.322428 C251.315683,503.565936 250.352445,501.724452 249.50253,499.911298 C244.176391,488.692411 238.311973,477.926813 233.552445,466.141315 C233.070826,466.254637 232.504216,466.254637 232.022597,466.339629 C231.427656,470.079258 230.889376,474.243845 230.294435,478.266779 C230.01113,480.136594 229.926138,482.374705 228.481282,483.054637 C227.716358,483.422934 225.959865,483.592917 224.458347,483.677909 C223.126813,483.762901 221.483642,483.791231 220.860371,483.054637 C220.492074,482.62968 220.407083,481.213153 220.435413,480.363238 C220.520405,478.83339 220.917032,477.360202 221.115346,475.858685 C221.766948,471.29747 222.276897,467.246206 222.98516,462.260034 C223.636762,457.670489 224.260034,453.704216 224.996627,448.888027 C225.308263,446.848229 225.619899,444.525126 227.064755,443.816863 C227.914671,443.391906 229.302867,443.420236 230.606071,443.335245 C237.490388,442.853626 245.819562,440.955481 250.012479,445.006745 C250.63575,445.630017 251.17403,446.281619 251.598988,447.159865 C253.412142,450.729511 252.392243,455.800675 250.692411,458.747049 C248.935919,461.948398 245.989545,463.619899 242.674874,464.979764 Z M242.051602,455.064081 C242.561551,453.845868 242.221585,451.976054 240.946712,451.607757 C238.481956,451.636088 235.96054,451.607757 233.864081,452.032715 C233.495784,453.760877 233.439123,455.772344 233.099157,457.500506 C236.385497,457.273862 241.003373,457.557167 242.051602,455.064081 Z M104.733558,452.372681 C106.235076,452.28769 107.878246,452.344351 108.898145,451.74941 C109.833052,451.182799 110.144688,449.851265 110.343002,448.349747 C110.541315,446.87656 111.419562,443.760202 110.144688,443.023609 C109.238111,442.513659 106.971669,442.910287 106.121754,442.966948 C104.365261,443.051939 102.750422,443.136931 101.815514,443.788533 C100.937268,444.440135 100.823946,446.139966 100.625632,447.386509 C100.398988,448.973019 100.144013,450.219562 100.200675,451.692749 C100.852277,453.052614 103.147049,452.429342 104.733558,452.372681 Z M198.365936,476.14199 C197.232715,476.7086 195.476223,477.530185 194.144688,477.671838 C187.430354,478.380101 185.333895,473.393929 186.09882,467.217875 C186.722091,462.090051 189.271838,457.217201 194.626307,456.820573 C196.609444,456.678921 197.884317,457.132209 199.272513,457.585497 C200.094098,457.868803 201.085666,458.577066 202.048904,458.548735 C203.352108,458.520405 203.862057,456.65059 204.343676,455.290725 C204.853626,453.845868 205.250253,452.401012 205.391906,451.267791 C205.590219,449.511298 204.825295,448.633052 203.947049,448.009781 C201.963912,446.593255 198.56425,445.630017 195.476223,445.8 C188.84688,446.139966 185.277234,448.774705 182.245868,452.655987 C180.206071,455.290725 179.016189,458.322091 178.024621,462.005059 C177.514671,463.874874 177.061383,465.801349 176.91973,467.699494 C176.098145,478.125126 179.752782,484.981113 187.996965,486.96425 C192.558179,488.040809 197.374368,486.199325 199.725801,484.187858 C200.320742,483.677909 201.113997,483.19629 201.170658,482.11973 C200.887352,481.836425 200.434064,482.346374 200.20742,482.11973 C200.490725,481.354806 201.170658,480.958179 201.453963,480.193255 C201.482293,479.93828 201.029005,480.164924 200.972344,479.994941 C201.085666,479.711636 201.567285,479.286678 201.029005,479.315008 C201.340641,479.003373 201.652277,478.635076 201.595616,477.926813 C201.510624,477.615177 200.7457,477.983474 200.689039,477.643508 C201.113997,476.510287 202.162226,475.660371 202.133895,474.328836 C200.859022,474.895447 199.640809,475.490388 198.365936,476.14199 Z M108.473187,456.735582 C109.209781,458.180438 108.64317,459.851939 108.416526,461.381788 C107.651602,466.027993 107.141653,471.014165 106.405059,475.518718 C105.92344,478.465093 105.526813,481.751433 104.960202,484.81113 C104.705228,486.086003 104.478583,487.984148 104.28027,489.513997 C104.081956,491.072175 103.940304,493.140304 103.175379,493.735245 C102.410455,494.330185 100.795616,494.273524 99.1524452,494.358516 C96.9426644,494.471838 95.2428331,494.613491 94.5062395,493.111973 C93.882968,491.837099 94.5629005,489.344013 94.7045531,487.50253 C95.0445194,483.507926 95.781113,480.419899 96.2344013,476.425295 C96.7443508,472.090725 97.3109612,468.832715 97.9625632,464.583137 C98.1325464,463.534907 98.3025295,462.458347 98.5291737,461.466779 C98.925801,459.596965 99.2657673,457.812142 100.880607,457.245531 C101.645531,456.962226 102.835413,457.018887 103.855312,456.905565 C105.668465,456.65059 106.943339,456.537268 108.473187,456.735582 Z" id="Page-1" stroke="none" fill="#FFFFFF" fill-rule="evenodd"></path>
</svg>