<svg width="743px" height="172px" viewBox="166 276 743 172" version="1.1" xmlns="http://www.w3.org/2000/svg" xmlns:xlink="http://www.w3.org/1999/xlink">
    <defs>
        <polygon id="path-1" points="0 0.8965 0 141.7875 108.4698 141.7875 108.4698 0.8965 0 0.8965"></polygon>
        <polygon id="path-3" points="41.98 56.9653 41.98 0.9293 0.7535 0.9293 0.7535 56.9653 41.98 56.9653"></polygon>
    </defs>
    <g id="Page-1" stroke="none" stroke-width="1" fill="none" fill-rule="evenodd" transform="translate(166.000000, 276.000000)">
        <path d="M602.7896,20.6135 C602.4896,21.1135 601.9886,21.5145 601.3886,21.7145 C600.1876,22.0145 598.8876,21.3135 598.5866,20.1135 C597.1866,14.8095 591.1826,12.1085 591.0816,12.1085 C589.8816,11.6075 589.3806,10.2065 589.8816,9.1065 C590.2816,8.3055 591.0816,7.7055 591.9826,7.7055 C592.2826,7.7055 592.5836,7.8055 592.8836,7.9055 C592.8836,7.9055 593.1836,8.0055 593.4836,8.2055 C592.6836,8.5055 591.8826,9.1065 591.3826,10.3065 C591.2826,10.6075 591.3826,10.8075 591.6826,11.0075 L591.8826,11.0075 C592.0826,11.0075 592.2826,10.9075 592.3826,10.7075 C593.1836,8.9055 594.7846,9.0055 594.8846,9.0055 L594.9846,9.0055 C595.4846,9.3065 596.0856,9.7065 596.7856,10.2065 C595.9856,10.5065 595.0846,11.1075 594.4846,12.3085 C594.3846,12.6085 594.4846,12.8085 594.7846,13.0085 L594.9846,13.0085 C595.1846,13.0085 595.3846,12.9085 595.4846,12.7085 C596.1856,11.2075 597.3866,11.0075 597.8866,11.0075 C599.4876,12.4085 601.1886,14.2095 602.2896,16.5105 C601.5886,16.4105 600.5886,16.4105 599.4876,17.1115 C599.2876,17.3115 599.1876,17.6115 599.3876,17.8115 C599.4876,17.9115 599.6876,18.0115 599.7876,18.0115 C599.8876,18.0115 599.9876,18.0115 600.0876,17.9115 C601.2886,17.1115 602.3896,17.4115 602.8896,17.7115 C603.0896,18.1115 603.1896,18.5125 603.2896,19.0125 C603.0896,19.4125 603.0896,20.0135 602.7896,20.6135 L602.7896,20.6135 Z M601.5886,24.5165 C601.4886,24.6165 601.4886,24.6165 601.3886,24.6165 C601.5886,24.1155 601.8886,23.3155 601.8886,22.5145 C602.0896,22.4145 602.2896,22.3145 602.3896,22.2145 C602.2896,23.4155 601.6886,24.4155 601.5886,24.5165 L601.5886,24.5165 Z M600.0876,24.9165 C599.9876,25.1165 599.7876,25.1165 599.5876,25.0165 C599.4876,24.9165 599.3876,24.8165 599.4876,24.6165 C599.7876,24.3155 600.1876,23.5155 600.1876,22.7145 L600.6886,22.7145 L600.7886,22.7145 C600.7886,23.8155 600.0876,24.8165 600.0876,24.9165 L600.0876,24.9165 Z M597.9866,22.9145 C597.9866,23.1155 597.7866,23.3155 597.7866,23.3155 L597.6866,23.3155 C597.5856,23.3155 597.3856,23.2155 597.2856,23.1155 C597.1856,23.0155 597.1856,22.8145 597.1856,22.7145 C597.1856,22.1145 597.4866,21.5145 597.8866,21.0135 C597.9866,21.2135 598.1866,21.5145 598.3866,21.7145 C598.1866,22.1145 597.9866,22.5145 597.9866,22.9145 L597.9866,22.9145 Z M598.2866,32.3215 C598.4866,32.5215 598.5866,32.7215 598.6866,32.9215 C598.8866,33.2215 598.9876,33.8225 598.9876,34.3225 C598.8866,34.8225 598.6866,35.3235 598.3866,35.6235 C597.9866,36.0235 597.3856,36.3235 596.7856,36.3235 C595.7846,36.3235 595.5846,36.1235 595.1846,35.7235 C595.0846,35.6235 595.0846,35.6235 594.9846,35.5235 C595.6846,35.4235 596.5856,35.1225 597.3856,34.2225 C597.5856,34.0225 597.5856,33.7215 597.2856,33.5215 C597.0856,33.3215 596.7856,33.3215 596.5856,33.6215 C595.7846,34.6225 594.7836,34.7225 594.0836,34.6225 L593.9836,34.6225 C593.6826,34.3225 593.3826,33.9225 593.1826,33.6215 C593.8836,33.5215 594.6836,33.1215 595.3846,32.3215 C595.5846,32.1205 595.5846,31.8205 595.2836,31.6205 C595.0836,31.4205 594.7836,31.4205 594.5836,31.7205 C593.8836,32.5215 593.0826,32.7215 592.4826,32.7215 C590.9816,30.4195 590.0806,27.9185 589.5806,25.5165 L593.3826,19.2125 C593.5836,22.8145 594.4846,28.7185 598.2866,32.3215 L598.2866,32.3215 Z M599.4876,35.8235 C599.7876,36.9245 599.8876,38.1245 599.4876,38.9255 C599.2876,39.4255 598.7866,39.7255 598.1866,39.8255 C597.3856,40.0265 596.6856,39.8255 596.2856,39.4255 C595.5846,38.8255 595.3846,37.7245 595.2846,36.9245 C595.6846,37.1245 596.1856,37.2245 596.6856,37.2245 L596.7856,37.2245 C597.6866,37.2245 598.4866,36.8235 599.0876,36.2235 C599.2876,36.1235 599.3876,36.0235 599.4876,35.8235 L599.4876,35.8235 Z M589.4806,32.5215 C589.4806,33.3215 588.9806,34.1225 588.1796,34.5225 C587.6796,34.8225 586.9796,34.8225 586.3786,34.6225 C586.0786,34.5225 585.7786,34.3225 585.5786,34.2225 C585.5786,34.2225 585.2776,33.9225 585.1776,33.7215 L585.0776,33.6215 L585.3786,33.6215 C586.2786,33.6215 587.3796,33.3215 588.2796,32.2205 C588.4796,32.0205 588.4796,31.7205 588.1796,31.5205 C587.9796,31.3205 587.6796,31.3205 587.4796,31.6205 C586.1786,33.1215 584.6776,32.5215 584.5776,32.5215 L584.4776,32.5215 C584.3776,32.2205 584.2776,31.9205 584.1776,31.6205 L584.3776,31.6205 C585.1776,31.6205 586.2786,31.3205 587.1796,30.2195 C587.3796,30.0195 587.3796,29.7195 587.0786,29.5195 C586.8786,29.3195 586.5786,29.3195 586.3786,29.6195 C585.4786,30.7205 584.2776,30.7205 583.7766,30.6195 C583.1766,28.2185 582.9766,25.8165 583.1766,23.5155 L587.6796,25.2165 C587.6796,26.9175 587.8796,28.6185 588.4796,30.3195 C588.7806,30.2195 589.3806,31.8205 589.4806,32.5215 L589.4806,32.5215 Z M590.0816,33.9225 C590.3816,34.7225 590.4816,35.5235 590.2816,36.2235 C590.0816,36.7235 589.6806,37.1245 589.0806,37.3245 C588.2806,37.6245 587.6796,37.6245 587.0796,37.2245 C586.4786,36.8235 586.0786,36.1235 585.8786,35.4235 C585.9786,35.4235 585.9786,35.5235 586.0786,35.5235 C586.3786,35.6235 586.7796,35.7235 587.1796,35.7235 C587.6796,35.7235 588.1806,35.6235 588.6806,35.4235 C589.2806,35.0225 589.7816,34.5225 590.0816,33.9225 L590.0816,33.9225 Z M575.5716,12.3085 L585.3786,14.8095 L588.3806,24.2155 L580.5756,21.3135 L575.5716,12.3085 Z M572.4696,18.4125 C572.4696,18.2115 572.5706,18.0115 572.5706,17.8115 C572.5706,17.4115 572.4696,17.1115 572.2696,16.8115 C572.0696,16.5105 571.6696,16.4105 571.3696,16.3105 L571.2696,16.3105 C570.5686,16.3105 569.9686,16.8115 569.9686,17.5115 C569.9686,17.8115 569.8686,18.0115 569.8686,18.1115 C569.6676,18.0115 569.5676,17.8115 569.3676,17.6115 C569.4676,17.5115 569.5676,17.5115 569.6676,17.4115 C570.0686,17.0115 570.0686,16.3105 569.7686,15.8105 C569.6676,15.6105 569.3676,15.4105 569.1676,15.3105 C569.1676,15.2105 569.1676,15.2105 569.2676,15.1095 C569.5686,14.6095 570.0686,14.3095 570.6686,14.1095 L570.7686,14.2095 C572.6696,13.2085 573.5706,15.1095 573.5706,15.2105 C573.6706,15.4105 573.8706,15.4105 573.9706,15.4105 C574.0706,15.4105 574.1706,15.4105 574.2716,15.3105 C574.4716,15.2105 574.5716,14.8095 574.4716,14.6095 C574.1706,14.2095 573.6706,13.6085 572.7706,13.2085 C573.3706,12.9085 573.9706,12.5085 574.4716,12.1085 L576.7726,16.2105 C575.3716,17.2115 573.9706,17.9115 572.4696,18.4125 L572.4696,18.4125 Z M570.3686,19.6125 C570.2686,19.5125 570.2686,19.4125 570.2686,19.4125 C570.2686,19.3125 570.2686,19.2125 570.3686,19.1125 C570.5686,18.9125 570.7686,18.3125 570.7686,17.6115 C570.7686,17.4115 570.9686,17.3115 571.1686,17.3115 C571.2696,17.3115 571.3696,17.4115 571.3696,17.4115 C571.3696,17.4115 571.4696,17.6115 571.4696,17.7115 C571.3696,18.6125 571.1686,19.3125 570.8686,19.6125 C570.7686,19.8125 570.5686,19.8125 570.3686,19.6125 L570.3686,19.6125 Z M567.9666,20.3135 L567.7666,20.3135 C567.7666,20.3135 567.6666,20.2135 567.6666,20.0135 L567.6666,19.7125 C567.8666,19.5125 567.9666,19.3125 568.0666,19.1125 C568.1676,18.8125 568.3676,18.6125 568.4666,18.3125 C568.5676,18.4125 568.6676,18.6125 568.7676,18.7125 C568.5676,19.1125 568.3676,19.5125 568.4666,20.0135 C568.3676,20.2135 568.1676,20.3135 567.9666,20.3135 L567.9666,20.3135 Z M566.6666,19.1125 C566.4666,19.1125 566.3666,18.9125 566.3666,18.7125 C566.6666,17.4115 568.2676,16.4105 568.3676,16.3105 C568.4676,16.3105 568.4676,16.2105 568.5676,16.2105 C568.6676,16.2105 568.7676,16.3105 568.8676,16.4105 C568.9676,16.5105 568.9676,16.7105 568.8676,16.8115 C568.6676,16.9115 568.3676,17.0115 568.1676,17.3115 L567.9676,17.5115 L567.8676,17.6115 L567.7666,17.7115 C567.7666,17.8115 567.6666,17.8115 567.6666,17.9115 C567.6666,18.0115 567.5666,18.0115 567.5666,18.1115 C567.5666,18.1115 567.5666,18.2115 567.4666,18.2115 C567.3666,18.4125 567.1666,18.7125 567.1666,18.9125 C566.9666,19.0125 566.8666,19.1125 566.6666,19.1125 L566.6666,19.1125 Z M576.2726,9.4065 C576.5726,10.3065 577.1726,11.2075 578.0736,11.9075 L575.3716,11.2075 L576.2726,9.4065 Z M577.8736,4.3025 C579.2746,4.3025 583.0766,4.7035 584.9786,8.3055 C583.6776,10.4065 581.7766,12.0075 580.2756,12.0075 C579.8756,12.0075 579.5746,11.9075 579.2746,11.7075 C577.9736,10.8075 577.0736,9.5065 576.8736,8.1055 C576.7726,6.8045 577.0726,5.5035 577.8736,4.3025 L577.8736,4.3025 Z M582.2766,1.7015 C583.3776,1.7015 584.4776,2.1015 585.4786,2.8015 C586.5796,3.6025 586.2786,5.2035 585.9786,6.1045 C585.8786,6.5045 585.6786,6.9045 585.4786,7.3045 C583.4766,4.2025 580.3746,3.5025 578.5736,3.4025 C579.6746,2.3015 580.9756,1.7015 582.2766,1.7015 L582.2766,1.7015 Z M580.4756,0.9005 L580.6756,0.9005 C580.5756,0.9005 580.4756,1.0005 580.4756,0.9005 L580.4756,0.9005 Z M590.6816,2.9025 L585.4786,13.7095 L581.3756,12.7085 C583.6776,11.9075 586.0786,9.0065 586.9796,6.3045 C587.5796,4.4035 587.2796,2.8015 586.1786,2.0015 L590.6816,2.9025 Z M589.2806,23.8155 L586.2786,14.4095 L588.6806,9.5065 C588.4806,10.9075 589.2806,12.4085 590.5816,13.0085 C590.5816,13.0085 591.7826,13.6085 593.2836,14.7095 L593.6836,16.6105 L589.2806,23.8155 Z M591.6826,6.6045 C590.8816,6.7045 590.0816,7.0045 589.4816,7.6055 L591.1826,4.1025 L591.6826,6.6045 Z M603.8906,18.6125 C601.6886,10.6075 593.5836,7.1045 593.1836,6.9045 C592.9836,6.8045 592.8836,6.8045 592.6836,6.7045 L591.8826,2.5015 L591.8826,2.4015 L591.7826,2.3015 C591.6826,2.2015 591.6826,2.2015 591.5826,2.2015 L580.3756,0.0005 C580.1746,0.0005 579.9746,0.1005 579.8746,0.3005 L579.0746,2.0015 C578.4736,2.5015 577.8736,3.0025 577.3736,3.7025 C576.4726,5.0035 575.9726,6.5045 576.0726,8.0055 L574.4716,11.3075 C573.3706,12.3085 572.0696,13.1085 570.5686,13.5085 C569.6686,13.7095 568.9676,14.3095 568.5676,15.0095 C568.4676,15.2105 568.3676,15.4105 568.2676,15.7105 C568.1676,15.7105 568.1676,15.7105 568.0676,15.8105 C567.8676,15.9105 566.0656,17.1115 565.6656,18.8125 C565.4656,19.5125 565.9656,20.2135 566.6666,20.4135 L566.9666,20.4135 L567.0666,20.4135 C567.0666,21.1135 567.7676,21.6145 568.4676,21.6145 L568.5676,21.6145 C569.2686,21.6145 569.7686,21.1135 569.8686,20.4135 C569.9686,20.5135 569.9686,20.6135 570.0686,20.7135 C570.3686,21.0135 570.6696,21.1135 570.9696,21.1135 C571.2696,21.1135 571.6696,21.0135 571.8696,20.7135 C572.0696,20.5135 572.2696,20.2135 572.3696,19.9135 C574.2716,19.4125 575.9726,18.5125 577.3736,17.5115 L579.9746,22.2145 C580.0756,22.3145 580.1746,22.4145 580.2756,22.4145 L582.6766,23.3155 C582.3766,26.8175 582.7766,30.6195 584.4776,34.1225 C584.5786,34.4225 584.7786,34.6225 584.9786,34.8225 C585.0786,35.7235 585.5786,37.5245 586.8796,38.3245 C587.2796,38.6255 587.7796,38.7255 588.3806,38.7255 C588.7806,38.7255 589.2806,38.6255 589.7816,38.4255 C590.6816,38.1245 591.2826,37.5245 591.5826,36.6235 C591.9826,35.3235 591.3826,33.6215 590.7816,32.4215 C590.7816,32.0205 590.6816,31.5205 590.4816,31.1205 C589.8806,29.9195 589.5816,28.7185 589.3806,27.4175 C589.9816,29.4195 590.8816,31.5205 592.0826,33.4215 C592.7826,34.4225 593.5836,35.4235 594.4836,36.3235 C594.4836,37.0245 594.5836,39.2255 595.7846,40.3265 C596.2856,40.8265 596.9856,41.0265 597.6856,41.0265 C597.9866,41.0265 598.2866,41.0265 598.5866,40.9265 C599.5866,40.7265 600.2876,40.2265 600.5876,39.4255 C601.3886,37.8245 600.6876,35.5235 600.1876,34.1225 L600.1876,33.9225 C600.1876,33.0215 599.7876,32.2215 599.1866,31.6205 C594.6836,27.3175 594.3836,20.3135 594.3836,17.6115 L594.8836,16.8115 C594.9846,16.7115 594.9846,16.6105 594.9846,16.4105 L594.7846,15.5105 C595.9846,16.6105 597.0856,18.1115 597.6856,19.8125 C597.1856,20.4135 596.4856,21.4145 596.4856,22.5145 C596.4856,22.9145 596.5856,23.2155 596.7856,23.5155 C596.9856,23.8155 597.3856,23.9155 597.6856,23.9155 L597.7866,23.9155 C598.4866,23.9155 599.0866,23.4155 599.0866,22.7145 C599.0866,22.5145 599.1876,22.3145 599.2866,22.1145 C599.3876,22.1145 599.3876,22.2145 599.4876,22.2145 C599.5876,22.9145 599.1866,23.6155 599.0866,23.6155 C598.9866,23.6155 598.9866,23.7155 598.8866,23.8155 C598.7866,23.9155 598.7866,24.1155 598.6866,24.2155 C598.4866,24.8165 598.7866,25.3165 599.2876,25.7165 C599.4876,25.8165 599.7876,25.9165 599.9876,25.9165 C600.3876,25.9165 600.7886,25.7165 601.0886,25.4165 C601.2886,25.5165 601.3886,25.5165 601.5886,25.5165 C602.0896,25.5165 602.4896,25.3165 602.6896,24.9165 C602.8896,24.6165 603.8906,22.9155 603.5906,21.3135 C603.6906,21.2135 603.7906,21.1135 603.7906,21.0135 C604.0906,20.3135 604.1906,19.4125 603.8906,18.6125 L603.8906,18.6125 Z" id="Fill-1" fill="#FFFFFF"></path>
        <g id="Group-5" transform="translate(0.000000, 10.411000)">
            <mask id="mask-2" fill="white">
                <use xlink:href="#path-1"></use>
            </mask>
            <g id="Clip-4"></g>
            <path d="M106.4688,0.8965 L65.5428,0.8965 C39.7258,0.8965 31.9208,20.0085 31.4198,30.2155 L31.4198,106.2645 L31.4198,106.9655 C31.5208,110.7675 31.6208,122.3755 23.9158,130.1805 C19.0118,135.1835 11.6078,137.7845 2.0008,137.7845 C0.9008,137.7845 -0.0002,138.6855 -0.0002,139.7865 C-0.0002,140.8865 0.9008,141.7875 2.0008,141.7875 C12.7078,141.7875 21.0138,138.8855 26.8178,132.9815 C32.7208,126.9775 35.6228,118.1725 35.4228,106.8645 L35.4228,30.3155 C35.5228,29.3145 37.0238,4.9995 65.5428,4.9995 L81.4528,4.9995 L81.4528,52.0295 L38.4248,52.0295 C37.3238,52.0295 36.4238,52.9305 36.4238,54.0305 C36.4238,55.1315 37.3238,56.0325 38.4248,56.0325 L81.4528,56.0325 L81.4528,96.3585 C81.4528,96.5585 81.2528,101.5615 84.6548,105.0635 C86.7558,107.2655 89.7578,108.3655 93.3598,108.3655 C94.4608,108.3655 95.3618,107.4655 95.3618,106.3645 C95.3618,105.2635 94.4608,104.3635 93.3598,104.3635 C90.8588,104.3635 88.8578,103.6625 87.5568,102.2625 C85.3548,99.9605 85.4548,96.4585 85.4548,96.3585 L85.4548,55.9325 L96.4618,55.9325 C97.5628,55.9325 98.4638,55.0315 98.4638,53.9305 C98.4638,52.8305 97.5628,51.9295 96.4618,51.9295 L85.4548,51.9295 L85.4548,4.8995 L106.4688,4.8995 C107.5698,4.8995 108.4698,3.9985 108.4698,2.8975 C108.4698,1.7975 107.5698,0.8965 106.4688,0.8965" id="Fill-3" fill="#FFFFFF" mask="url(#mask-2)"></path>
        </g>
        <path d="M131.485,62.3405 L103.467,62.3405 C102.366,62.3405 101.466,63.2415 101.466,64.3415 C101.466,65.4425 102.366,66.3435 103.467,66.3435 L131.485,66.3435 C144.794,66.3435 155.701,77.1505 155.701,90.3585 C155.701,103.5675 144.794,114.3745 131.385,114.3745 L113.473,114.3745 L113.473,69.3455 C113.473,68.2445 112.573,67.3435 111.472,67.3435 C110.371,67.3435 109.471,68.2445 109.471,69.3455 L109.471,114.3745 L103.467,114.3745 C102.366,114.3745 101.465,115.2745 101.465,116.3755 C101.465,117.4765 102.366,118.3765 103.467,118.3765 L109.471,118.3765 L109.471,169.4095 C109.471,170.5105 110.371,171.4105 111.472,171.4105 C112.573,171.4105 113.473,170.5105 113.473,169.4095 L113.473,118.3765 L131.385,118.3765 C146.995,118.3765 159.703,105.7685 159.703,90.3585 C159.703,74.9485 147.095,62.3405 131.485,62.3405" id="Fill-6" fill="#FFFFFF"></path>
        <path d="M186.1204,62.3405 L157.5024,62.3405 C156.4014,62.3405 155.5004,63.2415 155.5004,64.3415 C155.5004,65.4425 156.4014,66.3435 157.5024,66.3435 L186.1204,66.3435 C199.4294,66.3435 210.3364,77.1505 210.3364,90.3585 C210.3364,103.5675 199.4294,114.3745 186.0204,114.3745 L168.5094,114.3745 L168.5094,69.3455 C168.5094,68.2445 167.6084,67.3435 166.5074,67.3435 C165.4074,67.3435 164.5064,68.2445 164.5064,69.3455 L164.5064,114.3745 L157.5014,114.3745 C156.4014,114.3745 155.5004,115.2745 155.5004,116.3755 C155.5004,117.4765 156.4014,118.3765 157.5014,118.3765 L164.5064,118.3765 L164.5064,169.4095 C164.5064,170.5105 165.4074,171.4105 166.5074,171.4105 C167.6084,171.4105 168.5094,170.5105 168.5094,169.4095 L168.5094,118.3765 L186.0204,118.3765 C201.6304,118.3765 214.3384,105.7685 214.3384,90.3585 C214.3384,74.9485 201.7304,62.3405 186.1204,62.3405" id="Fill-8" fill="#FFFFFF"></path>
        <path d="M245.5587,62.0403 C235.5527,62.0403 226.5467,67.2433 221.5427,75.3493 L221.5427,64.3413 C221.5427,63.2413 220.6427,62.3403 219.5417,62.3403 C218.4407,62.3403 217.5407,63.2413 217.5407,64.3413 L217.5407,116.3753 C217.5407,117.4763 218.4407,118.3763 219.5417,118.3763 C220.6427,118.3763 221.5427,117.4763 221.5427,116.3753 L221.5427,86.4563 C221.6437,86.3563 221.6437,86.1563 221.6437,86.0563 C223.6447,74.4483 233.7507,66.0433 245.5587,66.0433 C246.6597,66.0433 247.5597,65.1423 247.5597,64.0413 C247.5597,62.9413 246.6597,62.0403 245.5587,62.0403" id="Fill-10" fill="#FFFFFF"></path>
        <path d="M274.5775,62.1404 C258.9675,62.1404 246.2595,74.8484 246.2595,90.3584 C246.2595,105.8684 258.6675,118.2764 274.4775,118.6774 L275.1775,118.6774 C284.1835,118.6774 292.5895,114.4744 297.6925,107.3694 C298.2925,106.4694 298.0925,105.2684 297.1915,104.5674 C296.2915,103.9674 295.0905,104.1674 294.3905,105.0684 C289.8875,111.2724 282.4825,114.8744 274.5775,114.7744 C260.9685,114.4744 250.2615,103.7674 250.2615,90.4584 C250.2615,77.0504 261.1685,66.2434 274.5775,66.2434 C286.8855,66.2434 297.2915,76.0494 298.6925,88.5574 L256.4655,88.5574 C255.3645,88.5574 254.4645,89.4584 254.4645,90.5584 C254.4645,91.6594 255.3645,92.5604 256.4655,92.5604 L300.8945,92.5604 C301.3945,92.5604 301.9955,92.3604 302.2955,91.9594 C302.6955,91.5594 302.8955,91.0594 302.8955,90.4584 C302.3955,74.7484 289.6875,62.1404 274.5775,62.1404" id="Fill-12" fill="#FFFFFF"></path>
        <path d="M338.719,62.3405 L338.019,62.3405 C327.712,62.3405 318.606,67.6435 313.603,75.8495 L313.603,64.3415 C313.603,63.2415 312.702,62.3405 311.602,62.3405 C310.501,62.3405 309.6,63.2415 309.6,64.3415 L309.6,116.3755 C309.6,117.4765 310.501,118.3765 311.602,118.3765 C312.702,118.3765 313.603,117.4765 313.603,116.3755 L313.603,86.9565 C313.803,86.7565 313.903,86.4565 313.903,86.1555 C315.904,74.6485 326.011,66.3435 338.019,66.3435 L338.719,66.3435 C344.923,66.3435 349.626,71.0465 349.626,77.3505 L349.626,116.3755 C349.626,117.4765 350.527,118.3765 351.627,118.3765 C352.728,118.3765 353.629,117.4765 353.629,116.3755 L353.629,77.3505 C353.629,68.9445 347.024,62.3405 338.719,62.3405" id="Fill-14" fill="#FFFFFF"></path>
        <path d="M387.6506,131.3851 L380.0456,131.3851 C371.9406,131.3851 365.6366,124.8811 365.6366,116.5751 L365.6366,66.3431 L387.6506,66.3431 C388.7516,66.3431 389.6516,65.4421 389.6516,64.3421 C389.6516,63.2411 388.7516,62.3401 387.6506,62.3401 L365.6366,62.3401 L365.6366,50.3331 C365.6366,49.2321 364.7356,48.3311 363.6346,48.3311 C362.5346,48.3311 361.6336,49.2321 361.6336,50.3331 L361.6336,62.3401 L357.6316,62.3401 C356.5306,62.3401 355.6296,63.2411 355.6296,64.3421 C355.6296,65.4421 356.5306,66.3431 357.6316,66.3431 L361.6336,66.3431 L361.6336,116.5751 C361.6336,127.1821 369.7386,135.3881 380.0456,135.3881 L387.6506,135.3881 C388.7516,135.3881 389.6516,134.4871 389.6516,133.3861 C389.6516,132.2861 388.7516,131.3851 387.6506,131.3851" id="Fill-16" fill="#FFFFFF"></path>
        <path d="M411.466,114.5743 C408.264,114.5743 405.662,111.9723 405.662,108.8703 L405.662,71.7463 C405.662,66.3433 401.46,62.0403 396.156,62.0403 C395.055,62.0403 394.155,62.9413 394.155,64.0413 C394.155,65.1423 395.055,66.0433 396.156,66.0433 C399.258,66.0433 401.66,68.5443 401.66,71.7463 L401.66,108.8703 C401.66,114.1743 406.062,118.5773 411.466,118.5773 C412.567,118.5773 413.467,117.6763 413.467,116.5753 C413.467,115.4753 412.567,114.5743 411.466,114.5743" id="Fill-18" fill="#FFFFFF"></path>
        <path d="M403.6609,59.3386 C404.7619,59.3386 405.6619,58.4376 405.6619,57.3376 L405.6619,50.3326 C405.6619,49.2316 404.7619,48.3316 403.6609,48.3316 C402.5599,48.3316 401.6599,49.2316 401.6599,50.3326 L401.6599,57.3376 C401.6599,58.4376 402.5599,59.3386 403.6609,59.3386" id="Fill-20" fill="#FFFFFF"></path>
        <path d="M464.6003,104.9681 C463.6993,104.2681 462.4993,104.4681 461.7983,105.3681 C457.2953,111.4721 450.0913,114.8741 442.0853,114.6741 C428.4773,114.3741 417.7703,103.6671 417.7703,90.3591 C417.7703,77.0501 428.6773,66.2431 441.9853,66.2431 C449.7903,66.2431 456.9953,69.9451 461.4983,76.4501 C462.0983,77.3501 463.3993,77.5501 464.3003,76.9501 C465.2003,76.3501 465.4003,75.0491 464.8003,74.1481 C459.4973,66.6431 451.1913,62.3401 441.9853,62.3401 C426.3753,62.3401 413.7673,74.9491 413.7673,90.4591 C413.7673,105.9691 426.1753,118.3771 441.9853,118.7771 L442.6863,118.7771 C451.6923,118.7771 459.7973,114.7741 465.0003,107.8701 C465.6013,106.8691 465.4013,105.5681 464.6003,104.9681" id="Fill-22" fill="#FFFFFF"></path>
        <path d="M497.4214,62.1404 C481.8114,62.1404 469.2034,74.8484 469.2034,90.3584 C469.2034,105.8684 481.6114,118.2764 497.4214,118.6774 L498.1214,118.6774 C507.2274,118.6774 515.6334,114.4744 520.7364,107.3694 C521.3374,106.4694 521.1364,105.2684 520.2364,104.5674 C519.3354,103.9674 518.1344,104.1674 517.4344,105.0684 C513.0314,111.1724 505.8264,114.7744 498.1214,114.7744 L497.5214,114.7744 C483.9124,114.4744 473.2054,103.7674 473.2054,90.4584 C473.2054,77.0504 484.1124,66.2434 497.4214,66.2434 C509.7294,66.2434 520.1354,76.0494 521.5364,88.5574 L479.7094,88.5574 C478.6094,88.5574 477.7084,89.4584 477.7084,90.5584 C477.7084,91.6594 478.6094,92.5604 479.7094,92.5604 L523.6384,92.5604 C524.1384,92.5604 524.7384,92.3604 525.0384,91.9594 C525.4394,91.5594 525.6394,91.0594 525.6394,90.4584 C525.1394,74.7484 512.4314,62.1404 497.4214,62.1404" id="Fill-24" fill="#FFFFFF"></path>
        <path d="M550.8561,88.3573 L542.8511,88.3573 C536.5471,88.3573 531.5431,83.5543 531.5431,77.3503 C531.5431,71.1463 536.5471,66.3433 542.8511,66.3433 L548.9551,66.3433 C553.8581,66.3433 558.3611,70.8463 558.7611,76.1493 C558.8611,77.2503 559.7621,78.0503 560.8631,77.9503 C561.9641,77.8503 562.7641,76.9503 562.6641,75.8493 C562.0631,68.3443 555.9601,62.3403 548.7551,62.3403 L542.7511,62.3403 C534.1451,62.3403 527.4411,68.9443 527.4411,77.3503 C527.4411,85.7553 534.1451,92.3603 542.7511,92.3603 L550.7561,92.3603 C556.7601,92.3603 561.7631,97.2633 561.7631,103.3673 C561.7631,109.4713 556.8601,114.3743 550.7561,114.3743 L539.9491,114.3743 C533.6451,114.3743 528.5421,109.3713 528.5421,103.2673 C528.5421,102.1663 527.6421,101.2653 526.5411,101.2653 C525.4401,101.2653 524.5391,102.1663 524.5391,103.2673 C524.5391,111.5723 531.4441,118.3763 539.9491,118.3763 L550.7561,118.3763 C558.9621,118.3763 565.7661,111.6723 565.7661,103.3673 C565.7661,95.0613 559.0611,88.3573 550.8561,88.3573" id="Fill-26" fill="#FFFFFF"></path>
        <path d="M601.3888,62.3405 L600.6888,62.3405 C590.6818,62.3405 581.7758,67.6435 576.7728,75.7495 L576.7728,37.3245 C576.7728,33.1215 573.3708,29.7195 569.2678,29.7195 C568.1678,29.7195 567.2668,30.6205 567.2668,31.7205 C567.2668,32.8215 568.1678,33.7225 569.2678,33.7225 C571.1698,33.7225 572.7708,35.4235 572.7708,37.3245 L572.7708,116.3755 C572.7708,117.4765 573.6708,118.3765 574.7718,118.3765 C575.8728,118.3765 576.7728,117.4765 576.7728,116.3755 L576.7728,86.9565 C576.7728,86.8565 576.8728,86.7565 576.8728,86.6565 C578.9748,74.8485 588.9808,66.3435 600.6888,66.3435 L601.3888,66.3435 C607.5928,66.3435 612.7968,71.7465 612.7968,78.0505 L612.7968,117.3765 C612.7968,118.4765 613.6968,119.3775 614.7978,119.3775 C615.8988,119.3775 616.7988,118.4765 616.7988,117.3765 L616.7988,78.0505 C616.7988,69.5455 609.6938,62.3405 601.3888,62.3405" id="Fill-28" fill="#FFFFFF"></path>
        <path d="M633.5094,114.5743 C630.3074,114.5743 627.7054,111.9723 627.7054,108.8703 L627.7054,71.7463 C627.7054,66.4433 623.4024,62.0403 618.0994,62.0403 C616.9984,62.0403 616.0984,62.9413 616.0984,64.0413 C616.0984,65.1423 616.9984,66.0433 618.0994,66.0433 C621.2014,66.0433 623.7034,68.5443 623.7034,71.7463 L623.7034,108.8703 C623.7034,114.1743 628.1054,118.5773 633.5094,118.5773 C634.6104,118.5773 635.5104,117.6763 635.5104,116.5753 C635.5104,115.4753 634.6104,114.5743 633.5094,114.5743" id="Fill-30" fill="#FFFFFF"></path>
        <path d="M625.8045,59.3386 C626.9055,59.3386 627.8055,58.4376 627.8055,57.3376 L627.8055,50.3326 C627.8055,49.2316 626.9055,48.3316 625.8045,48.3316 C624.7035,48.3316 623.8035,49.2316 623.8035,50.3326 L623.8035,57.3376 C623.8035,58.4376 624.7035,59.3386 625.8045,59.3386" id="Fill-32" fill="#FFFFFF"></path>
        <path d="M669.4328,62.3405 L640.8138,62.3405 C639.7138,62.3405 638.8128,63.2415 638.8128,64.3415 C638.8128,65.4425 639.7138,66.3435 640.8138,66.3435 L669.4328,66.3435 C682.7418,66.3435 693.6488,77.1505 693.6488,90.3585 C693.6488,103.5675 682.7418,114.3745 669.3328,114.3745 L651.8208,114.3745 L651.8208,69.3455 C651.8208,68.2445 650.9208,67.3435 649.8198,67.3435 C648.7188,67.3435 647.8188,68.2445 647.8188,69.3455 L647.8188,114.3745 L640.8138,114.3745 C639.7138,114.3745 638.8128,115.2745 638.8128,116.3755 C638.8128,117.4765 639.7138,118.3765 640.8138,118.3765 L647.8188,118.3765 L647.8188,169.4095 C647.8188,170.5105 648.7188,171.4105 649.8198,171.4105 C650.9208,171.4105 651.8208,170.5105 651.8208,169.4095 L651.8208,118.3765 L669.3328,118.3765 C684.9428,118.3765 697.6508,105.7685 697.6508,90.3585 C697.6508,74.9485 685.0428,62.3405 669.4328,62.3405" id="Fill-34" fill="#FFFFFF"></path>
        <g id="Group-38" transform="translate(701.000000, 61.411000)">
            <mask id="mask-4" fill="white">
                <use xlink:href="#path-3"></use>
            </mask>
            <g id="Clip-37"></g>
            <path d="M27.0705,26.9463 L19.0655,26.9463 C12.7615,26.9463 7.7585,22.1433 7.7585,15.9393 C7.7585,9.7353 12.7615,4.9323 19.0655,4.9323 L25.1695,4.9323 C30.0725,4.9323 34.5755,9.4353 34.9755,14.7383 C35.0755,15.8393 35.9765,16.6393 37.0775,16.5393 C38.1785,16.4393 38.9785,15.5393 38.8785,14.4383 C38.2775,6.9333 32.1745,0.9293 24.9695,0.9293 L18.9655,0.9293 C10.3595,0.9293 3.6555,7.5333 3.6555,15.9393 C3.6555,24.3443 10.3595,30.9493 18.9655,30.9493 L26.9705,30.9493 C32.9745,30.9493 37.9775,35.8523 37.9775,41.9563 C37.9775,48.0603 33.0745,52.9633 26.9705,52.9633 L16.1635,52.9633 C9.8595,52.9633 4.7565,47.9603 4.7565,41.8563 C4.7565,40.7553 3.8555,39.8543 2.7555,39.8543 C1.6545,39.8543 0.7535,40.7553 0.7535,41.8563 C0.7535,50.1613 7.6585,56.9653 16.1635,56.9653 L26.9705,56.9653 C35.1755,56.9653 41.9805,50.2613 41.9805,41.9563 C41.9805,33.6503 35.2765,26.9463 27.0705,26.9463" id="Fill-36" fill="#FFFFFF" mask="url(#mask-4)"></path>
        </g>
    </g>
</svg>