
<svg width="245px" height="52px" viewBox="372 328 245 52" version="1.1" xmlns="http://www.w3.org/2000/svg" xmlns:xlink="http://www.w3.org/1999/xlink">
    <g id="Page-1" stroke="none" stroke-width="1" fill="none" fill-rule="evenodd" transform="translate(372.000000, 328.000000)">
        <path d="M22.1799242,36.0982143 C22.1799242,33.4053571 20.5094697,32.6625 18.6534091,32.6625 C16.1477273,32.6625 13.8276515,33.8696429 13.8276515,36.5625 L13.8276515,45.3839286 L11.0435606,45.3839286 L11.0435606,36.0982143 C11.0435606,33.4053571 9.37310606,32.6625 7.51704545,32.6625 C5.01136364,32.6625 2.78409091,34.0553571 2.78409091,36.9339286 L2.78409091,45.3839286 L0,45.3839286 L0,30.8053571 L2.78409091,30.8053571 L2.78409091,33.0339286 L2.87689394,33.0339286 C4.17613636,30.9910714 6.49621212,30.3410714 8.53787879,30.3410714 C10.3939394,30.3410714 12.342803,31.0839286 13.4564394,33.0339286 C14.7556818,31.3625 16.6117424,30.3410714 19.3958333,30.3410714 C20.8806818,30.3410714 24.9640152,31.0839286 24.9640152,35.4482143 L24.9640152,45.3839286 L22.1799242,45.3839286 L22.1799242,36.0982143 Z" id="Fill-1" fill="#FFFFFF"></path>
        <path d="M39.0700758,30.8053571 L42.2253788,30.8053571 L34.6155303,47.8910714 C33.2234848,50.9553571 32.1098485,51.5125 29.5113636,51.5125 C28.8617424,51.5125 28.1193182,51.4196429 27.3768939,51.4196429 L27.3768939,49.0982143 C27.8409091,49.0982143 28.3049242,49.1910714 28.9545455,49.1910714 C30.717803,49.1910714 31.0890152,48.8196429 32.0170455,46.9625 L32.6666667,45.6625 L25.8920455,30.8053571 L29.0473485,30.8053571 L34.0587121,42.3196429 L39.0700758,30.8053571 Z" id="Fill-3" fill="#FFFFFF"></path>
        <path d="M70.530303,37.5839286 C70.0662879,40.1839286 69.1382576,42.3196429 67.1893939,43.8053571 C65.2405303,45.2910714 62.2708333,46.0339286 57.4450758,46.0339286 C52.7121212,46.0339286 43.8958333,45.6625 43.8958333,35.3553571 C43.8958333,25.0482143 52.7121212,24.6767857 57.4450758,24.6767857 C62.1780303,24.6767857 69.4166667,25.3267857 70.530303,33.1267857 L61.7140152,33.1267857 C61.5284091,31.7339286 60.5075758,29.6910714 57.5378788,29.6910714 C54.3825758,29.6910714 52.3409091,31.2696429 52.3409091,35.3553571 C52.3409091,39.3482143 54.2897727,41.0196429 57.1666667,41.0196429 C59.6723485,41.0196429 61.157197,39.9982143 61.7140152,37.5839286 L70.530303,37.5839286" id="Fill-5" fill="#FFFFFF"></path>
        <path d="M72.8503788,25.5125 L80.7386364,25.5125 L80.7386364,37.4910714 C80.7386364,40.0910714 82.2234848,40.8339286 84.7291667,40.8339286 C87.3276515,40.8339286 88.719697,39.9982143 88.719697,37.4910714 L88.719697,25.5125 L96.6079545,25.5125 L96.6079545,37.8625 C96.6079545,44.1767857 92.8030303,46.1267857 84.7291667,46.1267857 C76.655303,46.1267857 72.8503788,44.1767857 72.8503788,37.8625 L72.8503788,25.5125 Z" id="Fill-7" fill="#FFFFFF"></path>
        <path d="M121.943182,36.0982143 C121.943182,33.4053571 120.272727,32.6625 118.416667,32.6625 C115.910985,32.6625 113.590909,33.8696429 113.590909,36.5625 L113.590909,45.3839286 L110.806818,45.3839286 L110.806818,36.0982143 C110.806818,33.4053571 109.136364,32.6625 107.280303,32.6625 C104.774621,32.6625 102.454545,34.1482143 102.454545,37.0267857 L102.454545,45.4767857 L99.6704545,45.4767857 L99.6704545,30.8053571 L102.454545,30.8053571 L102.454545,33.0339286 L102.547348,33.0339286 C103.846591,30.9910714 106.166667,30.3410714 108.208333,30.3410714 C110.064394,30.3410714 112.013258,31.0839286 113.126894,33.0339286 C114.426136,31.3625 116.282197,30.3410714 119.066288,30.3410714 C120.551136,30.3410714 124.63447,31.0839286 124.63447,35.4482143 L124.63447,45.3839286 L121.850379,45.3839286 L121.850379,36.0982143 L121.943182,36.0982143 Z" id="Fill-9" fill="#FFFFFF"></path>
        <path d="M135.306818,32.6625 C131.316288,32.6625 129.831439,35.4482143 129.831439,38.1410714 C129.831439,40.7410714 131.316288,43.6196429 135.306818,43.6196429 C139.297348,43.6196429 140.782197,40.8339286 140.782197,38.1410714 C140.782197,35.4482143 139.297348,32.6625 135.306818,32.6625 M135.306818,30.2482143 C140.967803,30.2482143 143.751894,33.8696429 143.751894,38.0482143 C143.751894,42.2267857 140.967803,45.8482143 135.306818,45.8482143 C129.645833,45.8482143 126.861742,42.2267857 126.861742,38.0482143 C126.861742,33.8696429 129.645833,30.2482143 135.306818,30.2482143" id="Fill-11" fill="#FFFFFF"></path>
        <path d="M145.793561,30.8053571 L148.577652,30.8053571 L148.577652,33.4982143 L148.670455,33.4982143 C149.969697,31.1767857 151.825758,30.3410714 153.681818,30.3410714 C154.331439,30.3410714 154.702652,30.3410714 155.25947,30.5267857 L155.25947,33.4982143 C154.609848,33.3125 154.05303,33.2196429 153.310606,33.2196429 C150.526515,33.2196429 148.670455,34.7982143 148.670455,38.0482143 L148.670455,45.4767857 L145.886364,45.4767857 L145.886364,30.8053571 L145.793561,30.8053571 Z" id="Fill-13" fill="#FFFFFF"></path>
        <path d="M159.621212,26.2553571 L162.405303,26.2553571 L162.405303,30.8053571 L166.581439,30.8053571 L166.581439,32.9410714 L162.405303,32.9410714 L162.405303,41.9482143 C162.405303,43.1553571 163.24053,43.5267857 164.632576,43.5267857 C165.282197,43.5267857 165.931818,43.4339286 166.581439,43.3410714 L166.581439,45.6625 C165.653409,45.8482143 164.632576,45.8482143 163.426136,45.8482143 C160.734848,45.8482143 159.621212,44.5482143 159.621212,42.4125 L159.621212,32.9410714 L156.651515,32.9410714 L156.651515,30.8053571 L159.621212,30.8053571 L159.621212,26.2553571 Z" id="Fill-15" fill="#FFFFFF"></path>
        <path d="M175.768939,32.7553571 C172.335227,32.7553571 170.386364,34.9839286 170.386364,37.9553571 C170.386364,40.9267857 172.335227,43.0625 175.768939,43.0625 C179.109848,43.0625 181.151515,40.9267857 181.151515,37.9553571 C181.151515,34.9839286 179.109848,32.7553571 175.768939,32.7553571 L175.768939,32.7553571 Z M181.151515,30.8053571 L183.935606,30.8053571 L183.935606,44.1767857 C183.935606,49.3767857 181.429924,51.5125 175.49053,51.5125 C172.335227,51.5125 168.715909,51.0482143 168.159091,46.9625 L170.943182,46.9625 C171.407197,48.8196429 173.170455,49.2839286 175.768939,49.2839286 C179.75947,49.2839286 181.151515,47.2410714 181.151515,44.9196429 L181.151515,42.7839286 L181.058712,42.7839286 C179.481061,45.0125 177.346591,45.4767857 175.397727,45.4767857 C171.5,45.4767857 167.416667,43.3410714 167.416667,37.9553571 C167.416667,32.5696429 171.5,30.4339286 175.397727,30.4339286 C177.810606,30.4339286 179.945076,31.2696429 181.058712,32.9410714 L181.151515,32.9410714 L181.151515,30.8053571 Z" id="Fill-17" fill="#FFFFFF"></path>
        <path d="M197.856061,37.7696429 C197.392045,38.2339286 196.649621,38.4196429 195.164773,38.6053571 L192.00947,38.9767857 C189.875,39.2553571 188.668561,39.8125 188.668561,41.3910714 C188.668561,42.7839286 190.060606,43.7125 192.102273,43.7125 C195.257576,43.7125 197.856061,42.0410714 197.856061,39.6267857 L197.856061,37.7696429 Z M186.534091,35.3553571 C186.905303,31.7339286 189.410985,30.2482143 193.772727,30.2482143 C196.742424,30.2482143 200.454545,30.9910714 200.454545,34.4267857 L200.454545,42.3196429 C200.454545,43.1553571 200.825758,43.5267857 201.660985,43.5267857 C201.939394,43.5267857 202.310606,43.4339286 202.681818,43.4339286 L202.681818,45.3839286 C202.032197,45.4767857 201.19697,45.5696429 200.547348,45.5696429 C199.155303,45.5696429 198.227273,45.1982143 198.041667,43.5267857 C196.92803,45.0125 194.236742,45.8482143 191.823864,45.8482143 C186.998106,45.8482143 185.88447,43.3410714 185.88447,41.4839286 C185.88447,38.7910714 187.462121,37.4910714 192.102273,36.9339286 L195.257576,36.5625 C196.835227,36.3767857 197.763258,36.0982143 197.763258,34.7982143 C197.763258,32.7553571 195.814394,32.3839286 193.587121,32.3839286 C191.174242,32.3839286 189.132576,33.0339286 189.039773,35.2625 L186.534091,35.2625 L186.534091,35.3553571 Z" id="Fill-19" fill="#FFFFFF"></path>
        <path d="M211.590909,32.7553571 C208.157197,32.7553571 206.208333,34.9839286 206.208333,37.9553571 C206.208333,40.9267857 208.157197,43.0625 211.590909,43.0625 C214.931818,43.0625 216.973485,40.9267857 216.973485,37.9553571 C216.880682,34.9839286 214.931818,32.7553571 211.590909,32.7553571 L211.590909,32.7553571 Z M216.880682,30.8053571 L219.664773,30.8053571 L219.664773,44.1767857 C219.664773,49.3767857 217.159091,51.5125 211.219697,51.5125 C208.064394,51.5125 204.445076,51.0482143 203.888258,46.9625 L206.672348,46.9625 C207.136364,48.8196429 208.899621,49.2839286 211.498106,49.2839286 C215.488636,49.2839286 216.880682,47.2410714 216.880682,44.9196429 L216.880682,42.7839286 L216.787879,42.7839286 C215.210227,45.0125 213.075758,45.4767857 211.126894,45.4767857 C207.229167,45.4767857 203.145833,43.3410714 203.145833,37.9553571 C203.145833,32.5696429 207.229167,30.4339286 211.126894,30.4339286 C213.539773,30.4339286 215.674242,31.2696429 216.787879,32.9410714 L216.880682,32.9410714 L216.880682,30.8053571 Z" id="Fill-21" fill="#FFFFFF"></path>
        <path d="M235.162879,36.7482143 C234.791667,34.0553571 232.657197,32.6625 230.058712,32.6625 C227.460227,32.6625 225.232955,34.1482143 224.768939,36.7482143 L235.162879,36.7482143 Z M224.676136,38.8839286 C224.861742,41.8553571 227.55303,43.5267857 230.058712,43.5267857 C231.636364,43.5267857 233.863636,42.9696429 234.791667,40.9267857 L237.761364,40.9267857 C236.369318,44.4553571 233.121212,45.8482143 230.244318,45.8482143 C224.583333,45.8482143 221.799242,42.2267857 221.799242,38.0482143 C221.799242,33.8696429 224.583333,30.2482143 230.244318,30.2482143 C234.049242,30.2482143 238.132576,32.4767857 238.132576,38.5125 L238.132576,38.8839286 L224.676136,38.8839286 L224.676136,38.8839286 Z" id="Fill-23" fill="#FFFFFF"></path>
        <path d="M97.1647727,21.2410714 L71.0871212,4.34107143 L45.1022727,21.2410714 C44.1742424,21.7982143 42.967803,21.6125 42.3181818,20.6839286 C41.7613636,19.7553571 41.9469697,18.5482143 42.875,17.8982143 L70.0662879,0.348214286 C70.7159091,-0.116071429 71.5511364,-0.116071429 72.2007576,0.348214286 L99.2992424,17.8982143 C100.227273,18.4553571 100.505682,19.7553571 99.8560606,20.6839286 C99.4848485,21.2410714 98.8352273,21.6125 98.1856061,21.6125 C97.907197,21.6125 97.5359848,21.5196429 97.1647727,21.2410714" id="Fill-25" fill="#FFFFFF"></path>
        <path d="M240.081439,25.9767857 L240.545455,25.9767857 C241.102273,25.9767857 241.473485,25.7910714 241.473485,25.3267857 C241.473485,24.9553571 241.195076,24.6767857 240.638258,24.6767857 L240.081439,24.6767857 L240.081439,25.9767857 Z M239.988636,28.2982143 L239.153409,28.2982143 L239.153409,24.1196429 C239.524621,24.0267857 239.988636,24.0267857 240.638258,24.0267857 C241.380682,24.0267857 241.751894,24.1196429 242.030303,24.3982143 C242.308712,24.5839286 242.494318,24.8625 242.494318,25.2339286 C242.494318,25.6982143 242.123106,26.0696429 241.659091,26.1625 L241.659091,26.2553571 C242.123106,26.3482143 242.308712,26.7196429 242.401515,27.2767857 C242.494318,27.9267857 242.587121,28.1125 242.679924,28.2982143 L241.751894,28.2982143 C241.659091,28.1125 241.566288,27.8339286 241.473485,27.2767857 C241.380682,26.8125 241.102273,26.6267857 240.638258,26.6267857 L240.174242,26.6267857 L240.174242,28.2982143 L239.988636,28.2982143 Z M240.638258,22.9125 C238.875,22.9125 237.482955,24.3982143 237.482955,26.2553571 C237.482955,28.1125 238.875,29.5982143 240.638258,29.5982143 C242.401515,29.5982143 243.793561,28.1125 243.793561,26.2553571 C243.793561,24.3053571 242.494318,22.9125 240.638258,22.9125 L240.638258,22.9125 Z M240.731061,21.9839286 C243.051136,21.9839286 244.907197,23.8410714 244.907197,26.1625 C244.907197,28.4839286 243.051136,30.3410714 240.731061,30.3410714 C238.410985,30.3410714 236.554924,28.4839286 236.554924,26.1625 C236.554924,23.8410714 238.410985,21.9839286 240.731061,21.9839286 L240.731061,21.9839286 Z" id="Fill-27" fill="#FFFFFF"></path>
    </g>
</svg>